<svg width="181" height="22" viewBox="0 0 181 22" fill="none" xmlns="http://www.w3.org/2000/svg">
<path d="M45.748 3.49V6.922H39.544V9.65H44.12V12.928H39.544V19H35.232V3.49H45.748ZM53.328 3.49V12.488C53.328 13.324 53.5187 13.9693 53.9 14.424C54.296 14.8787 54.89 15.106 55.682 15.106C56.474 15.106 57.068 14.8787 57.464 14.424C57.8747 13.9547 58.08 13.3093 58.08 12.488V3.49H62.392V12.488C62.392 13.9107 62.0914 15.128 61.49 16.14C60.8887 17.1373 60.0674 17.8927 59.026 18.406C57.9994 18.9047 56.8554 19.154 55.594 19.154C54.3327 19.154 53.2034 18.9047 52.206 18.406C51.2234 17.8927 50.446 17.1373 49.874 16.14C49.3167 15.1427 49.038 13.9253 49.038 12.488V3.49H53.328ZM74.1601 19L71.0801 13.28H70.6181V19H66.3061V3.49H73.1041C74.3508 3.49 75.4068 3.71 76.2721 4.15C77.1375 4.57533 77.7901 5.16933 78.2301 5.932C78.6701 6.68 78.8901 7.52333 78.8901 8.462C78.8901 9.518 78.5968 10.4493 78.0101 11.256C77.4381 12.048 76.5948 12.6127 75.4801 12.95L78.9781 19H74.1601ZM70.6181 10.332H72.7521C73.3388 10.332 73.7788 10.1927 74.0721 9.914C74.3655 9.63533 74.5121 9.232 74.5121 8.704C74.5121 8.20533 74.3581 7.81667 74.0501 7.538C73.7568 7.24467 73.3241 7.098 72.7521 7.098H70.6181V10.332ZM94.0731 3.49V6.922H89.9371V19H85.6251V6.922H81.5331V3.49H94.0731ZM111.09 3.49V19H106.778V12.774H101.52V19H97.2084V3.49H101.52V9.32H106.778V3.49H111.09ZM119.41 6.944V9.474H124.36V12.752H119.41V15.546H125.02V19H115.098V3.49H125.02V6.944H119.41ZM136.545 19L133.465 13.28H133.003V19H128.691V3.49H135.489C136.735 3.49 137.791 3.71 138.657 4.15C139.522 4.57533 140.175 5.16933 140.615 5.932C141.055 6.68 141.275 7.52333 141.275 8.462C141.275 9.518 140.981 10.4493 140.395 11.256C139.823 12.048 138.979 12.6127 137.865 12.95L141.363 19H136.545ZM133.003 10.332H135.137C135.723 10.332 136.163 10.1927 136.457 9.914C136.75 9.63533 136.897 9.232 136.897 8.704C136.897 8.20533 136.743 7.81667 136.435 7.538C136.141 7.24467 135.709 7.098 135.137 7.098H133.003V10.332ZM160.339 16.47H154.839L154.003 19H149.471L155.125 3.49H160.097L165.729 19H161.175L160.339 16.47ZM159.261 13.17L157.589 8.154L155.939 13.17H159.261ZM172.986 3.49V19H168.674V3.49H172.986Z" fill="#1F1F1F"/>
<g clip-path="url(#clip0_183_4)">
<rect x="4" width="22" height="22" rx="4" fill="#0B031F"/>
<path d="M20.5 5.5L16.5 16.5" stroke="#F3C346" stroke-width="4" stroke-linecap="round"/>
<path d="M13.5 5.5L9.5 16.5" stroke="#F3C346" stroke-width="4" stroke-linecap="round"/>
</g>
<defs>
<clipPath id="clip0_183_4">
<rect width="22" height="22" fill="white" transform="translate(4)"/>
</clipPath>
</defs>
</svg>
